<svg width="15" height="15" viewBox="0 0 15 15" fill="none" xmlns="http://www.w3.org/2000/svg">
<g opacity="0.9">
<path d="M11.8901 10.1168C11.6479 10.1168 11.4512 9.9201 11.4512 9.67793V7.28849C11.4512 7.04191 11.2502 6.84083 11.0036 6.84083H3.99673C3.75015 6.84083 3.54908 7.04191 3.54908 7.28849V7.78898C3.54908 8.03115 3.3524 8.22783 3.11023 8.22783C2.86806 8.22783 2.67139 8.03115 2.67139 7.78898V7.28849C2.67139 6.55756 3.26581 5.96167 3.9982 5.96167H11.005C11.736 5.96167 12.3319 6.5561 12.3319 7.28849V9.67646C12.3289 9.9201 12.1337 10.1168 11.8901 10.1168Z" fill="#F9B21D"/>
</g>
<g opacity="0.9">
<path d="M13.6658 14.9895H1.33413C0.603215 14.9895 0.00732422 14.395 0.00732422 13.6627V10.1592C0.00732422 9.91706 0.203997 9.72038 0.44617 9.72038C0.688342 9.72038 0.885015 9.91706 0.885015 10.1592V13.6627C0.885015 13.9092 1.08609 14.1103 1.33267 14.1103H13.6644C13.9109 14.1103 14.112 13.9092 14.112 13.6627V6.2287C14.112 6.09073 14.0504 5.96304 13.9418 5.87792L7.77885 0.986037C7.61447 0.855411 7.3855 0.855411 7.22112 0.986037L1.05527 5.87645C0.948127 5.96158 0.885015 6.08927 0.885015 6.22723V7.73017C0.885015 7.89602 0.976013 8.04719 1.12278 8.12645L7.28864 11.4053C7.42073 11.4758 7.57777 11.4758 7.70987 11.4053L11.683 9.28888C11.8972 9.17439 12.1629 9.25659 12.2774 9.4694C12.3919 9.68369 12.3097 9.94935 12.0969 10.0638L8.12376 12.1803C7.73335 12.3887 7.26809 12.3887 6.87768 12.1803L0.711825 8.9014C0.277383 8.67097 0.00879193 8.22185 0.00879193 7.73017V6.22723C0.00879193 5.82068 0.192256 5.44201 0.510749 5.18809L6.67513 0.297681C6.9085 0.11275 7.20204 0.0100098 7.49999 0.0100098V0.0100098C7.79793 0.0100098 8.09147 0.11275 8.32484 0.297681L14.4907 5.18956C14.8092 5.44201 14.9926 5.82068 14.9926 6.2287V13.6627C14.9912 14.3936 14.3968 14.9895 13.6658 14.9895Z" fill="#226DB4"/>
</g>
</svg>
