<svg width="320" min-width="280" max-width="1400" hasStretchableElementInBetween="true" height="140" viewBox="0 0 320 140" fill="none" xmlns="http://www.w3.org/2000/svg">
	<rect x="60" y="16" height="14" rx="2" fill="#EEEEEE" isStretchable="false" lineId="0" width="14" margin-left="60" margin-right="8"/>
	<rect x="82" y="16" height="14" rx="3" fill="#EEEEEE" isStretchable="false" lineId="0" width="64" margin-right="24"/>
	<rect id="rect1" x="170" y="16" width="52" height="14" rx="3" fill="#EEEEEE" isStretchable="true" lineId="0" rel-width="0.80" min-width="52" margin-right="12" shouldRepositionNextElement="true"/>
	<rect x="234" y="16" height="14" rx="3" fill="#EEEEEE" isStretchable="false" lineId="0" width="52"/>

	<rect x="60" y="63" height="14" rx="2" fill="#EEEEEE" isStretchable="false" lineId="1" width="14" margin-left="60" margin-right="8"/>
	<rect x="82" y="63" height="14" rx="3" fill="#EEEEEE" isStretchable="false" lineId="1" width="64" margin-right="24"/>
	<rect id="rect2" x="170" y="63" width="52" height="14" rx="3" fill="#EEEEEE" isStretchable="true" lineId="1" rel-width="0.80" min-width="52" margin-right="12" shouldRepositionNextElement="true"/>
	<rect x="234" y="63" height="14" rx="3" fill="#EEEEEE" isStretchable="false" lineId="1" width="52"/>

	<rect x="60" y="110" height="14" rx="2" fill="#EEEEEE" isStretchable="false" lineId="2" width="14" margin-left="60" margin-right="8"/>
	<rect x="82" y="110" height="14" rx="3" fill="#EEEEEE" isStretchable="false" lineId="2" width="64" margin-right="24"/>
	<rect id="rect3" x="170" y="110" width="52" height="14" rx="3" fill="#EEEEEE" isStretchable="true" lineId="2" rel-width="0.80" min-width="52" margin-right="12" shouldRepositionNextElement="true"/>
	<rect x="234" y="110" height="14" rx="3" fill="#EEEEEE" isStretchable="false" lineId="2" width="52"/>
</svg>
