<svg xmlns="http://www.w3.org/2000/svg" width="24" height="24" viewBox="0 0 24 24">
  <g fill="none" fill-rule="evenodd">
    <rect width="24" height="24" fill="#F3F3F4" rx="4.4"/>
    <g transform="translate(4 4)">
      <path fill="#551AC4" d="M0,1.07464957 C0,0.481137002 0.478848219,8.66852061e-13 1.07464957,8.69268089e-13 L14.9253504,9.25433922e-13 C15.518863,9.27840669e-13 16,0.478848219 16,1.07464957 L16,14.9253504 C16,15.518863 15.5211518,16 14.9253504,16 L1.07464957,16 C0.481137002,16 0,15.5211518 0,14.9253504 L0,1.07464957 Z"/>
      <path stroke="#FFF" stroke-width=".533" d="M7.73333333,3.75483329 L4.16658535,6.60823168 L4,6.66666667 L2.94168701,6.66666667 C2.78583059,6.66666667 2.66666667,6.78632221 2.66666667,6.9394578 L2.66666667,9.8605422 C2.66666667,10.0128505 2.78815828,10.1333333 2.94168701,10.1333333 L4,10.1333333 L4.13719887,10.1713352 L7.67834801,12.2960247 C7.7559068,12.34256 7.73333333,12.3551423 7.73333333,12.2701879 L7.73333333,3.75483329 Z"/>
      <polygon fill="#FFF" points="8.8 7.2 9.6 7.2 9.6 9.6 8.8 9.6" opacity=".5"/>
      <polygon fill="#FFF" points="10.4 5.6 11.2 5.6 11.2 11.2 10.4 11.2" opacity=".8"/>
      <polygon fill="#FFF" points="12 4.8 12.8 4.8 12.8 12 12 12" opacity=".9"/>
    </g>
  </g>
</svg>
