<svg xmlns="http://www.w3.org/2000/svg" width="24" height="24" viewBox="0 0 24 24">
  <g fill="none" fill-rule="evenodd">
    <rect width="24" height="24" fill="#F3F3F4" rx="4.4"/>
    <g transform="translate(4 4)">
      <path fill="#8D8D8D" d="M0,1.07464957 C0,0.481137002 0.478848219,8.66852061e-13 1.07464957,8.69268089e-13 L14.9253504,9.25433922e-13 C15.518863,9.27840669e-13 16,0.478848219 16,1.07464957 L16,14.9253504 C16,15.518863 15.5211518,16 14.9253504,16 L1.07464957,16 C0.481137002,16 0,15.5211518 0,14.9253504 L0,1.07464957 Z"/>
      <path stroke="#FFF" stroke-width=".533" d="M4.26666667,3.46666667 L4.26666667,12.5407552 L11.7333333,12.5407552 L11.7333333,5.72734048 L9.18471064,3.46666667 L4.26666667,3.46666667 Z"/>
      <polygon fill="#8D8D8D" points="12 5.607 9.286 3.207 8.486 3.207 8.486 6.407 12 6.407"/>
      <polygon fill="#FFF" points="9.286 3.207 9.286 5.607 12 5.607"/>
    </g>
  </g>
</svg>
