<svg xmlns="http://www.w3.org/2000/svg" width="24" height="24" viewBox="0 0 24 24">
  <g fill="none" fill-rule="evenodd">
    <rect width="24" height="24" fill="#F3F3F4" rx="4.4"/>
    <g transform="translate(4 4)">
      <path fill="#2238FF" d="M0,1.07464957 C0,0.481137002 0.478848219,8.66852061e-13 1.07464957,8.69268089e-13 L14.9253504,9.25433922e-13 C15.518863,9.27840669e-13 16,0.478848219 16,1.07464957 L16,14.9253504 C16,15.518863 15.5211518,16 14.9253504,16 L1.07464957,16 C0.481137002,16 0,15.5211518 0,14.9253504 L0,1.07464957 Z"/>
      <path fill="#FFF" d="M11.541354,8.32308693 C11.7776143,8.1450091 11.7853939,7.8621517 11.541354,7.67821007 L6.02778717,3.52243843 C5.79152684,3.3443606 5.6,3.43733675 5.6,3.72988368 L5.6,12.2714133 C5.6,12.56406 5.78374719,12.6628002 6.02778717,12.4788586 L11.541354,8.32308693 Z"/>
    </g>
  </g>
</svg>
