<svg xmlns="http://www.w3.org/2000/svg" width="24" height="24" viewBox="0 0 24 24">
  <g fill="none" fill-rule="evenodd">
    <rect width="24" height="24" fill="#F3F3F4" rx="4.4"/>
    <g transform="translate(4 4)">
      <path fill="#737373" d="M0,1.99406028 C0,0.892771196 0.894513756,8.68537622e-13 1.99406028,8.72996382e-13 L14.0059397,9.21705629e-13 C15.1072288,9.26171455e-13 16,0.894513756 16,1.99406028 L16,14.0059397 C16,15.1072288 15.1054862,16 14.0059397,16 L1.99406028,16 C0.892771196,16 0,15.1054862 0,14.0059397 L0,1.99406028 Z"/>
      <path fill="#FFF" d="M10.4000001,1.62494869 L10.4000001,0.852283764 L8.80000014,0.852283804 L8.80000014,0.00386627122 L5.58483092,0.00386622086 L5.58483092,0.770043123 C5.58483092,0.770043123 7.19993523,0.767423266 7.20000005,0.770043112 C7.20925511,1.14405747 7.20000007,1.62494869 7.20000007,1.62494869 L5.58483092,1.62494869 L5.58483092,2.40497856 L7.20000007,2.40497856 L7.19999992,3.22329369 C7.19999992,3.22329369 5.5998113,3.22329369 5.58483092,3.22329369 C5.56287287,3.22329369 5.58483092,4.01483841 5.58483092,4.01483841 L7.19999996,4.01483841 L7.19999998,4.76765179 L5.58483092,4.76765175 L5.58483092,5.59044609 L7.2,5.59044609 L7.20000006,6.42834244 L5.58483092,6.42834244 L5.58483092,7.248703 L7.20000006,7.248703 C7.20000006,7.248703 7.20000006,7.71485608 7.20000007,7.94793261 C7.20000007,7.96984355 7.20000007,8.01366542 7.20000007,8.01366542 L5.58483092,8.01366542 L5.58483092,10.4213135 L10.4000001,10.4213135 L10.4,7.248703 L8.80000007,7.24870305 L8.80000007,6.42834249 L10.4,6.42834244 L10.4,5.59044609 L8.80000007,5.59044614 L8.80000007,4.76765191 L10.4000001,4.76765175 L10.4000001,4.01483841 L8.80000014,4.01483846 L8.80000014,3.22329374 L10.4000001,3.22329369 L10.4000001,2.40497856 L8.80000014,2.40497861 L8.80000014,1.62494874 L10.4000001,1.62494869 Z"/>
    </g>
  </g>
</svg>
